<?xml version="1.0" standalone="no"?>
<!DOCTYPE svg PUBLIC "-//W3C//DTD SVG 20010904//EN"
 "http://www.w3.org/TR/2001/REC-SVG-20010904/DTD/svg10.dtd">
<svg version="1.0" xmlns="http://www.w3.org/2000/svg"
 width="1587.000000pt" height="1587.000000pt" viewBox="0 0 1587.000000 1587.000000"
 preserveAspectRatio="xMidYMid meet">
<metadata>
Created by potrace 1.14, written by Peter Selinger 2001-2017
</metadata>
<g transform="translate(0.000000,1587.000000) scale(0.100000,-0.100000)"
fill="#000000" stroke="none">
<path d="M7395 13189 c11 -13 23 -26 26 -29 37 -33 119 -190 148 -285 32 -102
36 -135 36 -290 0 -141 -3 -170 -30 -280 -57 -233 -59 -455 -4 -605 12 -33 76
-140 83 -140 2 0 -8 35 -22 78 -22 67 -25 96 -26 217 -1 191 8 258 70 499 67
262 47 450 -68 627 -42 66 -138 167 -198 209 l-35 24 20 -25z"/>
<path d="M7780 13195 c8 -11 18 -22 21 -25 4 -3 27 -36 52 -74 148 -221 183
-500 103 -826 -25 -103 -39 -220 -39 -325 0 -116 32 -245 81 -322 32 -51 61
-69 37 -23 -39 76 -58 329 -33 458 4 26 10 63 13 82 2 19 18 89 35 155 39 152
39 151 46 205 34 274 -57 501 -267 665 -35 27 -57 41 -49 30z"/>
<path d="M8170 13192 c0 -5 7 -16 16 -23 26 -21 94 -126 120 -185 61 -138 78
-223 79 -389 0 -131 -5 -180 -29 -270 -39 -152 -59 -378 -43 -487 15 -97 57
-201 102 -253 l26 -30 -16 40 c-29 72 -44 168 -43 285 0 137 17 257 63 440 41
162 48 212 47 309 -1 131 -38 249 -115 368 -46 72 -207 223 -207 195z"/>
<path d="M6729 11479 c-241 -49 -457 -170 -659 -369 -119 -118 -167 -183 -241
-325 -276 -535 -203 -1075 215 -1573 183 -218 398 -404 693 -601 129 -86 123
-86 106 1 -17 88 -23 320 -11 438 7 71 30 205 52 310 20 89 99 331 138 420 98
224 173 364 289 539 49 74 88 136 86 137 -1 1 -41 22 -88 47 l-86 46 -43 -65
c-150 -226 -412 -370 -746 -410 -65 -8 -269 -12 -299 -6 l-24 4 30 59 c16 32
33 59 37 59 4 0 23 -4 42 -10 227 -61 440 -37 624 72 144 85 233 182 371 402
9 14 20 9 86 -33 94 -62 308 -174 456 -240 61 -27 126 -56 145 -64 267 -119
437 -140 583 -73 64 29 107 66 156 132 37 51 96 180 87 190 -3 2 -16 7 -29 9
-148 28 -293 95 -524 244 -71 45 -457 325 -620 448 -63 48 -92 67 -156 100
-218 115 -459 155 -670 112z"/>
<path d="M8975 11369 c-22 -4 -58 -9 -80 -13 -119 -17 -338 -94 -458 -162 -23
-13 -53 -28 -66 -34 -31 -14 -250 -160 -258 -173 -6 -11 40 -53 68 -62 11 -4
19 -11 19 -16 0 -5 5 -9 11 -9 5 0 36 -17 67 -38 82 -56 236 -137 317 -167 51
-19 93 -28 153 -30 45 -1 85 -4 87 -7 2 -2 -3 -35 -11 -73 -8 -39 -17 -79 -19
-90 -11 -50 -84 -172 -134 -225 -133 -138 -295 -182 -506 -139 -117 24 -250
75 -485 186 -52 25 -109 51 -126 59 l-31 13 -70 -102 c-262 -381 -434 -817
-481 -1212 -13 -117 -6 -415 13 -466 2 -8 6 -25 9 -39 16 -91 86 -259 138
-332 57 -80 155 -178 177 -178 5 0 12 33 15 73 19 190 103 439 210 622 31 53
117 186 126 195 3 3 22 28 44 55 65 84 266 276 366 351 52 38 138 99 190 134
499 334 814 673 949 1025 35 92 77 240 86 305 3 25 8 57 10 71 12 68 17 157
19 301 l3 157 -68 11 c-81 14 -229 18 -284 9z"/>
<path d="M9469 11218 c-3 -463 -101 -778 -337 -1087 -54 -70 -235 -260 -312
-326 -115 -100 -307 -243 -485 -362 -496 -332 -798 -787 -870 -1313 -12 -87
-12 -150 -1 -159 13 -11 143 -47 194 -55 29 -4 32 -2 26 12 -26 62 -33 95 -34
152 -1 203 167 370 369 366 58 -1 62 0 56 19 -43 152 18 322 147 407 70 47
156 72 224 65 l52 -5 -14 44 c-46 153 47 345 204 421 48 23 70 27 139 28 46 0
83 0 83 0 0 0 -6 20 -13 45 -28 93 -3 214 60 297 46 60 77 86 143 120 48 24
66 28 145 28 111 0 143 -14 270 -121 50 -41 122 -102 161 -134 l72 -60 45 138
c142 428 158 815 46 1120 -64 174 -183 322 -331 411 l-38 23 -1 -74z"/>
<path d="M10419 10486 c-2 -2 -22 -6 -44 -9 -22 -4 -65 -13 -95 -22 -58 -18
-219 -93 -221 -104 0 -3 -2 -15 -4 -26 -2 -11 -6 -38 -10 -61 -3 -22 -8 -52
-10 -65 -2 -13 -6 -41 -10 -63 l-5 -38 27 18 c152 99 229 132 322 138 74 5
132 -17 180 -69 158 -172 153 -464 -10 -636 -83 -87 -138 -119 -323 -191 -117
-46 -293 -130 -306 -147 -3 -4 -19 -16 -36 -26 -17 -11 -49 -36 -70 -55 -134
-122 -181 -262 -135 -399 21 -60 83 -171 97 -171 4 0 2 6 -3 13 -38 47 -44
157 -12 223 59 123 207 218 549 354 82 32 182 75 222 95 370 186 538 483 456
806 -50 197 -178 352 -340 413 -41 15 -208 32 -219 22z"/>
<path d="M9166 9816 c-112 -41 -187 -145 -188 -261 -1 -96 29 -138 202 -280
25 -21 68 -57 95 -80 28 -24 64 -55 80 -69 104 -89 244 -82 345 17 57 55 83
116 84 192 1 103 -19 131 -221 300 -97 81 -194 158 -217 170 -49 26 -124 31
-180 11z"/>
<path d="M8727 9313 c-124 -58 -189 -196 -151 -323 18 -58 38 -79 219 -230 82
-69 159 -133 169 -142 34 -31 113 -51 168 -44 196 26 306 254 198 408 -37 53
-372 326 -421 343 -58 21 -120 16 -182 -12z"/>
<path d="M8340 8833 c-179 -60 -247 -296 -123 -421 15 -16 57 -53 93 -83 36
-29 67 -56 70 -59 3 -3 27 -23 55 -45 27 -22 57 -47 65 -55 89 -86 179 -109
282 -70 122 45 207 197 174 310 -23 77 -45 102 -221 245 -27 22 -56 47 -65 55
-44 42 -119 99 -150 115 -45 24 -123 27 -180 8z"/>
<path d="M7928 8342 c-106 -38 -183 -141 -187 -251 -3 -84 23 -134 105 -207
134 -117 309 -259 338 -274 18 -9 57 -15 100 -15 59 0 79 4 118 27 90 54 148
151 148 250 0 59 -40 138 -93 181 -26 21 -52 43 -59 50 -46 43 -254 211 -283
228 -46 27 -127 32 -187 11z"/>
<path d="M7264 7501 c-2 -2 -4 -55 -4 -117 l0 -112 83 2 c66 1 82 4 82 16 0
11 -13 15 -50 17 -27 1 -56 2 -63 2 -9 1 -12 12 -10 34 3 32 3 32 58 32 42 0
55 4 55 15 0 11 -15 16 -57 18 -57 3 -58 4 -58 32 0 30 0 30 56 29 51 -2 86
12 71 27 -7 7 -156 12 -163 5z"/>
<path d="M7488 7490 c-30 -23 -38 -69 -15 -88 7 -6 37 -19 67 -29 54 -18 67
-34 47 -60 -20 -28 -97 -5 -97 28 0 5 -9 9 -20 9 -48 0 -5 -67 51 -79 46 -10
95 9 110 42 17 39 -11 83 -58 92 -71 13 -95 42 -54 65 24 12 71 -3 71 -23 0
-7 9 -13 20 -13 26 0 26 27 1 50 -32 29 -91 32 -123 6z"/>
<path d="M7660 7502 c-6 -2 -10 -10 -10 -18 0 -9 11 -14 34 -14 19 0 36 -6 38
-12 2 -7 3 -50 3 -95 -1 -61 3 -84 13 -88 25 -9 28 3 27 100 l-2 96 36 -3 c28
-2 37 1 39 15 2 9 -2 17 -10 18 -40 3 -159 4 -168 1z"/>
<path d="M8457 7499 c-34 -9 -56 -35 -57 -66 0 -16 4 -20 20 -16 12 3 19 8 16
11 -12 11 17 42 39 42 18 0 26 -7 31 -27 6 -23 1 -32 -37 -65 -24 -21 -47 -38
-50 -38 -9 0 -30 -50 -25 -59 3 -4 39 -8 79 -8 64 -1 75 1 73 15 -2 13 -14 17
-54 17 -29 -1 -52 2 -52 6 0 4 23 24 50 44 28 20 50 40 51 43 6 38 4 62 -5 74
-19 25 -49 36 -79 27z"/>
<path d="M8637 7502 c-35 -4 -56 -37 -63 -98 -11 -91 32 -147 99 -130 32 8 48
41 52 104 5 86 -27 132 -88 124z m43 -53 c13 -23 13 -90 0 -123 -12 -32 -45
-34 -61 -4 -16 30 -13 106 6 134 17 26 39 23 55 -7z"/>
<path d="M8062 7484 c-20 -14 -30 -53 -16 -67 8 -8 35 3 29 13 -2 4 2 15 9 25
9 13 20 16 39 11 44 -11 35 -44 -27 -101 -30 -27 -57 -59 -60 -71 -6 -19 -2
-20 72 -21 63 -2 79 1 79 13 0 16 -1 16 -56 18 -22 0 -42 4 -46 8 -3 3 14 20
40 38 66 45 80 94 39 135 -20 19 -74 19 -102 -1z"/>
<path d="M8240 7482 c-17 -14 -22 -30 -25 -77 -6 -101 30 -149 98 -131 32 8
55 62 52 122 -3 64 -2 61 -25 84 -25 25 -71 26 -100 2z m80 -31 c25 -48 5
-151 -29 -151 -27 0 -41 29 -41 85 0 56 14 85 40 85 11 0 24 -9 30 -19z"/>
<path d="M3870 7337 c20 -17 69 -61 109 -97 41 -36 79 -69 85 -75 23 -20 162
-142 195 -171 49 -42 61 -55 60 -62 0 -4 -29 -32 -65 -62 -79 -67 -89 -76
-236 -203 -65 -56 -118 -104 -118 -107 0 -3 137 -5 305 -4 301 0 306 0 310
-20 2 -12 3 -101 3 -199 -1 -97 1 -180 5 -183 3 -3 425 -6 936 -6 l931 0 0
-50 c0 -141 88 -238 271 -297 l67 -22 -28 -57 c-81 -163 -59 -351 54 -464 68
-69 72 -71 141 -97 182 -68 426 0 594 167 l58 57 -3 -51 c-7 -142 112 -218
228 -145 25 16 49 34 53 41 4 7 18 -2 40 -27 31 -36 36 -38 88 -38 l56 0 -26
-45 c-68 -118 -152 -206 -241 -251 -39 -20 -60 -24 -124 -22 -68 2 -79 -1 -88
-18 -14 -24 2 -55 32 -65 82 -26 234 17 338 95 186 139 300 292 485 649 l59
112 60 0 61 0 -32 -20 c-52 -31 -124 -111 -146 -159 -24 -55 -26 -144 -4 -186
48 -93 152 -121 262 -70 72 33 244 202 278 272 8 18 7 27 -7 42 -10 11 -25 17
-33 14 -12 -5 -11 2 5 34 28 54 18 100 -28 131 -30 21 -43 23 -92 18 -31 -3
-82 -17 -112 -30 -56 -25 -56 -25 -41 -3 22 31 19 36 -26 39 l-40 3 51 39 c79
60 178 165 212 224 39 69 44 135 10 162 -21 18 22 18 1271 19 710 0 1309 0
1329 0 l37 1 -1 193 c-1 106 1 198 5 203 4 7 116 10 310 10 200 -1 303 2 300
9 -2 6 -47 46 -100 90 -53 44 -101 85 -107 90 -6 6 -47 42 -91 80 -44 38 -90
79 -103 91 l-23 21 52 44 c29 24 57 49 63 54 6 6 52 46 102 90 50 44 123 108
162 143 39 35 82 72 94 82 23 19 15 19 -469 20 l-493 0 -1 -27 c0 -16 -1 -49
-1 -75 l1 -48 -3170 0 -3169 0 -1 23 c0 12 -1 46 -1 75 l0 52 -491 0 -492 -1
35 -32z m3224 -1214 c-86 -45 -177 -114 -251 -191 l-72 -75 -44 11 c-170 43
-250 132 -223 249 l7 31 316 0 316 1 -49 -26z m379 16 c26 -13 107 -90 107
-101 0 -20 -276 -135 -364 -152 -12 -2 -42 -9 -68 -15 -25 -6 -70 -14 -100
-17 l-53 -6 20 23 c11 12 35 37 54 53 19 17 39 36 45 41 49 46 182 127 264
161 66 27 67 27 95 13z m203 0 c3 -6 0 -18 -9 -26 -13 -13 -17 -12 -40 11
l-26 26 34 0 c19 0 37 -5 41 -11z m1015 -14 c-67 -31 -215 -181 -301 -304 -36
-51 -70 -100 -76 -109 -10 -14 -41 -16 -215 -17 -202 -2 -205 -2 -264 -30 -71
-33 -137 -76 -184 -119 -26 -24 -32 -26 -26 -11 14 39 18 154 5 199 -17 60
-67 107 -132 122 -5 1 -20 2 -35 3 -22 1 -7 12 71 51 55 28 100 50 101 50 5 0
25 -81 29 -115 5 -45 25 -64 60 -58 26 5 45 37 40 68 -9 62 -17 91 -36 126
l-21 40 20 22 c27 29 43 61 43 85 0 19 11 20 486 20 l486 0 -51 -23z m35 -112
c-36 -52 -134 -158 -140 -153 -7 8 57 98 109 152 54 56 71 57 31 1z m-1556
-279 c-115 -109 -166 -247 -119 -324 10 -16 24 -31 31 -31 7 -1 26 -3 41 -5
63 -7 111 42 103 105 -4 40 -20 58 -56 66 l-29 6 19 32 c55 90 202 197 272
197 36 0 84 -24 98 -49 28 -53 5 -153 -56 -246 -103 -156 -266 -262 -413 -267
-235 -9 -319 188 -190 447 46 92 46 92 129 99 100 8 154 16 187 26 55 16 53 9
-17 -56z m795 -136 c-30 -99 -250 -377 -277 -350 -37 37 108 257 226 344 47
34 60 35 51 6z m275 -19 c-24 -46 -76 -127 -114 -179 -36 -47 -137 -150 -147
-150 -15 0 68 154 188 348 10 17 23 22 53 22 l40 0 -20 -41z m529 23 c-13 -20
-99 -82 -114 -82 -10 0 52 54 94 82 33 21 33 21 20 0z m39 -154 c-97 -124
-215 -214 -270 -206 -31 4 -35 46 -12 103 l18 43 97 25 c54 14 119 37 146 50
26 13 50 25 51 26 2 0 -11 -18 -30 -41z"/>
<path d="M7864 7306 c-8 -21 3 -35 27 -33 14 1 19 7 17 22 -4 24 -36 33 -44
11z"/>
<path d="M8943 5962 c-19 -13 -152 -252 -140 -253 7 0 34 -4 60 -8 48 -8 48
-8 81 33 18 23 49 64 68 91 l36 51 -47 46 c-26 26 -52 43 -58 40z"/>
<path d="M9118 5933 c6 -2 12 -20 12 -39 0 -43 15 -45 18 -2 2 18 8 36 15 40
7 4 -3 7 -23 7 -19 0 -29 -3 -22 -6z"/>
<path d="M9180 5898 c0 -32 3 -39 10 -28 9 13 11 13 19 0 8 -12 12 -10 20 10
l10 25 1 -25 c0 -16 3 -20 8 -13 11 18 7 66 -6 71 -6 2 -15 -9 -19 -25 l-7
-28 -6 24 c-10 44 -30 37 -30 -11z"/>
</g>
</svg>
